<svg xmlns="http://www.w3.org/2000/svg" xmlns:xlink="http://www.w3.org/1999/xlink" viewBox="0,0,256,256" width="512px" height="512px" fill-rule="nonzero"><defs><linearGradient x1="31.56" y1="1.132" x2="31.56" y2="45.885" gradientUnits="userSpaceOnUse" id="color-1"><stop offset="0" stop-color="#fa5252"></stop><stop offset="0.492" stop-color="#ffadaa"></stop><stop offset="1" stop-color="#ffe7ab"></stop></linearGradient><linearGradient x1="32.01" y1="2.754" x2="32.01" y2="58.581" gradientUnits="userSpaceOnUse" id="color-2"><stop offset="0" stop-color="#aae1f4" stop-opacity="0.16078"></stop><stop offset="1" stop-color="#dfadf0"></stop></linearGradient></defs><g fill="none" fill-rule="nonzero" stroke="none" stroke-width="1" stroke-linecap="butt" stroke-linejoin="miter" stroke-miterlimit="10" stroke-dasharray="" stroke-dashoffset="0" font-family="none" font-weight="none" font-size="none" text-anchor="none" style="mix-blend-mode: normal"><g transform="scale(4,4)"><path d="M43.47,14h10.46c-2.34,0 -4.48,1.38 -5.46,3.51l-14.75,32.49h-1.91l-17.32,-32.8c-1.05,-1.98 -3.08,-3.2 -5.3,-3.2h19.47c-0.27,0.32 -0.5,0.66 -0.7,1.04c-0.89,1.71 -0.92,3.73 -0.07,5.41l6.28,13.77l1.8,3.94l1.83,-3.93l6.6,-14.15l0.03,-0.05l0.02,-0.06c0.82,-2.07 0.43,-4.39 -0.98,-5.97z" fill="url(#color-1)"></path><path d="M58,10h-19.31c-0.55,0 -1,0.45 -1,1v4c0,0.52 0.4,0.96 0.92,1c0.24,0.01 1.2,0.2 1.57,0.78c0.25,0.41 0.22,1.03 -0.11,1.85c-0.03,0.07 -0.05,0.14 -0.09,0.21c-1.3,3.23 -3.06,7.13 -4.13,9.43l-3.95,-8.71c-0.12,-0.25 -0.32,-0.79 -0.38,-1.37c-0.04,-0.39 -0.02,-0.8 0.15,-1.15c0.23,-0.52 0.75,-0.86 1.57,-1.07c0.45,-0.11 0.76,-0.51 0.76,-0.97v-4c0,-0.55 -0.45,-1 -1,-1h-26.98c-0.55,0 -1,0.45 -1,1v6c0,0.55 0.45,1 1,1h2.93c0.02,0 1.53,0.19 3.16,3.45c2.38,4.77 16.86,31.75 17.01,32.02c0.17,0.33 0.51,0.53 0.88,0.53h6c0.39,0 0.75,-0.23 0.91,-0.59l15.04,-33.09c0.03,-0.09 0.83,-2.32 3.05,-2.32h3c0.55,0 1,-0.45 1,-1v-6c0,-0.55 -0.45,-1 -1,-1zM57,16h-2c-3.46,0 -4.75,3.13 -4.93,3.62l-14.71,32.38h-4.76c-2.05,-3.81 -14.52,-27.07 -16.71,-31.45c-2.21,-4.42 -4.62,-4.55 -4.89,-4.55h-1.98v-4h24.98v2.27c-1.03,0.4 -1.75,1.05 -2.15,1.94c-0.28,0.61 -0.37,1.24 -0.34,1.83c0.01,0.7 0.18,1.33 0.33,1.76l6.16,13.2c0,0 4.62,-10.37 5.93,-13.63c0.57,-1.44 0.56,-2.66 -0.06,-3.64c-0.56,-0.91 -1.48,-1.34 -2.18,-1.55v-2.18h17.31z" fill="url(#color-2)"></path></g></g></svg>